<svg width="42" height="42" viewBox="0 0 42 42" fill="none" xmlns="http://www.w3.org/2000/svg">
<path fill-rule="evenodd" clip-rule="evenodd" d="M5.25 10.5V10.5V21V31.5C5.25 35.8342 12.3588 38.5 21 38.5C29.6412 38.5 36.75 35.8342 36.75 31.5V21V10.5C36.75 6.1658 29.6412 3.5 21 3.5C12.3588 3.5 5.25001 6.16579 5.25 10.5ZM33.25 21V15.0864C30.353 16.6339 25.9254 17.5 21 17.5C16.0746 17.5 11.647 16.6339 8.75 15.0864V21C8.75 22.4648 14.1772 24.5 21 24.5C27.8228 24.5 33.25 22.4648 33.25 21ZM8.75 25.5864C11.647 27.1339 16.0746 28 21 28C25.9254 28 30.353 27.1339 33.25 25.5864V31.5C33.25 32.9648 27.8228 35 21 35C14.1772 35 8.75 32.9648 8.75 31.5V25.5864ZM20.9999 14C14.1892 14 8.76908 11.972 8.75 10.5078V10.5H8.74995C8.74998 9.03521 14.1772 7.00001 20.9999 7.00001C27.8227 7.00001 33.25 9.03522 33.25 10.5C33.25 11.9648 27.8227 14 20.9999 14Z" fill="white" fill-opacity="0.4"/>
<path d="M5.25 10.5L5.1 10.5V10.5H5.25ZM33.25 15.0864H33.4V14.8362L33.1793 14.9541L33.25 15.0864ZM8.75 15.0864L8.82067 14.9541L8.6 14.8362V15.0864H8.75ZM8.75 25.5864L8.82067 25.4541L8.6 25.3362V25.5864H8.75ZM33.25 25.5864H33.4V25.3362L33.1793 25.4541L33.25 25.5864ZM8.75 10.5078H8.59999L8.60001 10.5097L8.75 10.5078ZM8.75 10.5H8.9V10.35H8.75V10.5ZM8.74995 10.5L8.59995 10.5L8.59995 10.65H8.74995V10.5ZM5.4 10.5V10.5H5.1V10.5H5.4ZM5.4 21V10.5H5.1V21H5.4ZM5.4 31.5V21H5.1V31.5H5.4ZM21 38.35C16.6922 38.35 12.7762 37.6852 9.94296 36.4872C7.10026 35.2851 5.4 33.5723 5.4 31.5H5.1C5.1 33.7619 6.95414 35.5491 9.82613 36.7635C12.7076 37.9819 16.6666 38.65 21 38.65V38.35ZM36.6 31.5C36.6 33.5723 34.8997 35.2851 32.057 36.4872C29.2238 37.6852 25.3078 38.35 21 38.35V38.65C25.3334 38.65 29.2924 37.9819 32.1739 36.7635C35.0459 35.5491 36.9 33.7619 36.9 31.5H36.6ZM36.6 21V31.5H36.9V21H36.6ZM36.6 10.5V21H36.9V10.5H36.6ZM21 3.65C25.3078 3.65 29.2238 4.31482 32.057 5.51283C34.8997 6.71486 36.6 8.42769 36.6 10.5H36.9C36.9 8.23811 35.0459 6.45093 32.1739 5.23652C29.2924 4.01808 25.3334 3.35 21 3.35V3.65ZM5.4 10.5C5.4 8.42768 7.10026 6.71486 9.94297 5.51283C12.7762 4.31482 16.6922 3.65 21 3.65V3.35C16.6666 3.35 12.7076 4.01808 9.82613 5.23652C6.95414 6.45093 5.1 8.2381 5.1 10.5L5.4 10.5ZM33.4 21V15.0864H33.1V21H33.4ZM33.1793 14.9541C30.3124 16.4855 25.9124 17.35 21 17.35V17.65C25.9385 17.65 30.3936 16.7823 33.3207 15.2187L33.1793 14.9541ZM21 17.35C16.0876 17.35 11.6876 16.4855 8.82067 14.9541L8.67933 15.2187C11.6064 16.7823 16.0615 17.65 21 17.65V17.35ZM8.6 15.0864V21H8.9V15.0864H8.6ZM8.6 21C8.6 21.2304 8.70646 21.4553 8.88087 21.6665C9.0558 21.8783 9.30805 22.0876 9.62333 22.2909C10.2542 22.6977 11.1597 23.0943 12.2716 23.4424C14.4972 24.1393 17.5749 24.65 21 24.65V24.35C17.6023 24.35 14.5551 23.8431 12.3613 23.1561C11.2636 22.8124 10.3858 22.4256 9.78589 22.0388C9.48576 21.8452 9.26071 21.6553 9.11219 21.4754C8.96314 21.2949 8.9 21.1358 8.9 21H8.6ZM21 24.65C24.4251 24.65 27.5028 24.1393 29.7284 23.4424C30.8403 23.0943 31.7458 22.6977 32.3767 22.2909C32.6919 22.0876 32.9442 21.8783 33.1191 21.6665C33.2935 21.4553 33.4 21.2304 33.4 21H33.1C33.1 21.1358 33.0369 21.2949 32.8878 21.4754C32.7393 21.6553 32.5142 21.8452 32.2141 22.0388C31.6142 22.4256 30.7364 22.8124 29.6387 23.1561C27.4449 23.8431 24.3977 24.35 21 24.35V24.65ZM21 27.85C16.0876 27.85 11.6876 26.9855 8.82067 25.4541L8.67933 25.7187C11.6064 27.2823 16.0615 28.15 21 28.15V27.85ZM33.1793 25.4541C30.3124 26.9855 25.9124 27.85 21 27.85V28.15C25.9385 28.15 30.3936 27.2823 33.3207 25.7187L33.1793 25.4541ZM33.4 31.5V25.5864H33.1V31.5H33.4ZM21 35.15C24.4251 35.15 27.5028 34.6393 29.7284 33.9424C30.8403 33.5943 31.7458 33.1977 32.3767 32.7909C32.6919 32.5876 32.9442 32.3783 33.1191 32.1665C33.2935 31.9553 33.4 31.7304 33.4 31.5H33.1C33.1 31.6358 33.0369 31.7949 32.8878 31.9754C32.7393 32.1553 32.5142 32.3452 32.2141 32.5388C31.6142 32.9256 30.7364 33.3124 29.6387 33.6561C27.4449 34.3431 24.3977 34.85 21 34.85V35.15ZM8.6 31.5C8.6 31.7304 8.70646 31.9553 8.88087 32.1665C9.0558 32.3783 9.30805 32.5876 9.62333 32.7909C10.2542 33.1977 11.1597 33.5943 12.2716 33.9424C14.4972 34.6393 17.5749 35.15 21 35.15V34.85C17.6023 34.85 14.5551 34.3431 12.3613 33.6561C11.2636 33.3124 10.3858 32.9256 9.78589 32.5388C9.48576 32.3452 9.26071 32.1553 9.11219 31.9754C8.96314 31.7949 8.9 31.6358 8.9 31.5H8.6ZM8.6 25.5864V31.5H8.9V25.5864H8.6ZM8.60001 10.5097C8.60301 10.7396 8.71147 10.9637 8.88737 11.1743C9.06384 11.3857 9.31719 11.5945 9.63334 11.7974C10.266 12.2033 11.1719 12.5989 12.2834 12.9461C14.508 13.6411 17.5809 14.15 20.9999 14.15V13.85C17.6083 13.85 14.5658 13.3449 12.3728 12.6598C11.2755 12.317 10.3972 11.931 9.79535 11.5449C9.49426 11.3517 9.26783 11.1619 9.11763 10.9821C8.96685 10.8015 8.90176 10.6419 8.89999 10.5058L8.60001 10.5097ZM8.6 10.5V10.5078H8.9V10.5H8.6ZM8.74995 10.65H8.75V10.35H8.74995V10.65ZM20.9999 6.85001C17.5749 6.85001 14.4971 7.36069 12.2716 8.05756C11.1597 8.40573 10.2542 8.80233 9.62329 9.2091C9.30802 9.41237 9.05576 9.62171 8.88083 9.83353C8.70641 10.0447 8.59995 10.2696 8.59995 10.5L8.89995 10.5C8.89995 10.3642 8.9631 10.205 9.11214 10.0246C9.26067 9.84472 9.48572 9.65475 9.78586 9.46123C10.3858 9.07443 11.2635 8.68758 12.3613 8.34385C14.555 7.65692 17.6023 7.15001 20.9999 7.15001V6.85001ZM33.4 10.5C33.4 10.2696 33.2935 10.0447 33.1191 9.83355C32.9441 9.62172 32.6919 9.41238 32.3766 9.20911C31.7457 8.80234 30.8402 8.40574 29.7283 8.05757C27.5028 7.3607 24.425 6.85001 20.9999 6.85001V7.15001C24.3976 7.15001 27.4449 7.65692 29.6387 8.34386C30.7364 8.68759 31.6141 9.07444 32.2141 9.46124C32.5142 9.65476 32.7392 9.84473 32.8878 10.0246C33.0368 10.2051 33.1 10.3642 33.1 10.5H33.4ZM20.9999 14.15C24.425 14.15 27.5028 13.6393 29.7283 12.9424C30.8402 12.5943 31.7457 12.1977 32.3766 11.7909C32.6919 11.5876 32.9441 11.3783 33.1191 11.1665C33.2935 10.9553 33.4 10.7304 33.4 10.5H33.1C33.1 10.6358 33.0368 10.795 32.8878 10.9754C32.7392 11.1553 32.5142 11.3453 32.2141 11.5388C31.6141 11.9256 30.7364 12.3124 29.6387 12.6562C27.4449 13.3431 24.3976 13.85 20.9999 13.85V14.15Z" fill="black"/>
</svg>
