<svg width="27" height="31" viewBox="0 0 27 31" fill="none" xmlns="http://www.w3.org/2000/svg">
<path fill-rule="evenodd" clip-rule="evenodd" d="M3.2 15.75V10.7657C5.64177 12.07 9.37357 12.8 13.525 12.8C17.6764 12.8 21.4082 12.07 23.85 10.7657V15.75C23.85 16.9846 19.2756 18.7 13.525 18.7C7.77439 18.7 3.2 16.9846 3.2 15.75ZM0.25 15.75V6.9C0.25 3.24688 6.24169 1 13.525 1C20.8083 1 26.8 3.24688 26.8 6.9V15.75V24.6C26.8 28.2531 20.8083 30.5 13.525 30.5C6.24169 30.5 0.25 28.2531 0.25 24.6V15.75ZM23.85 19.6157V24.6C23.85 25.8346 19.2756 27.55 13.525 27.55C7.77439 27.55 3.2 25.8346 3.2 24.6V19.6157C5.64177 20.92 9.37357 21.65 13.525 21.65C17.6764 21.65 21.4082 20.92 23.85 19.6157ZM13.525 9.85C19.2735 9.85 23.8466 8.13588 23.85 6.90138L23.85 6.9C23.85 5.66539 19.2756 3.95 13.525 3.95C7.77439 3.95 3.2 5.66539 3.2 6.9C3.2 8.1346 7.77439 9.85 13.525 9.85Z" fill="white" fill-opacity="0.4"/>
<path d="M3.2 10.7657L3.27067 10.6334L3.05 10.5155V10.7657H3.2ZM23.85 10.7657H24V10.5155L23.7793 10.6334L23.85 10.7657ZM23.85 19.6157H24V19.3655L23.7793 19.4834L23.85 19.6157ZM3.2 19.6157L3.27067 19.4834L3.05 19.3655V19.6157H3.2ZM23.85 6.90138L24 6.90179L24 6.90159L23.85 6.90138ZM23.85 6.9L24 6.90021V6.9H23.85ZM3.05 10.7657V15.75H3.35V10.7657H3.05ZM13.525 12.65C9.38661 12.65 5.68236 11.9216 3.27067 10.6334L3.12933 10.898C5.60119 12.2184 9.36053 12.95 13.525 12.95V12.65ZM23.7793 10.6334C21.3676 11.9216 17.6634 12.65 13.525 12.65V12.95C17.6895 12.95 21.4488 12.2184 23.9207 10.898L23.7793 10.6334ZM24 15.75V10.7657H23.7V15.75H24ZM13.525 18.85C16.414 18.85 19.0105 18.4193 20.8888 17.8311C21.8271 17.5373 22.5925 17.2023 23.1267 16.8579C23.3936 16.6858 23.6084 16.5078 23.7579 16.3267C23.9069 16.1463 24 15.9517 24 15.75H23.7C23.7 15.857 23.6502 15.986 23.5266 16.1357C23.4034 16.2848 23.2159 16.4434 22.9641 16.6057C22.4609 16.9302 21.7233 17.2555 20.7992 17.5448C18.9526 18.123 16.3866 18.55 13.525 18.55V18.85ZM3.05 15.75C3.05 15.9517 3.14313 16.1463 3.29213 16.3267C3.44165 16.5078 3.6564 16.6858 3.92332 16.8579C4.45751 17.2023 5.22289 17.5373 6.1612 17.8311C8.03949 18.4193 10.636 18.85 13.525 18.85V18.55C10.6634 18.55 8.0974 18.123 6.25084 17.5448C5.32672 17.2555 4.5891 16.9302 4.08588 16.6057C3.8341 16.4434 3.64655 16.2848 3.52345 16.1357C3.39982 15.986 3.35 15.857 3.35 15.75H3.05ZM0.4 15.75V6.9H0.1V15.75H0.4ZM0.4 6.9C0.4 5.16823 1.82098 3.73041 4.21468 2.71824C6.59887 1.71009 9.89618 1.15 13.525 1.15V0.85C9.87051 0.85 6.53032 1.41335 4.09784 2.44193C1.67486 3.46648 0.1 4.97865 0.1 6.9H0.4ZM13.525 1.15C17.1538 1.15 20.4511 1.71009 22.8353 2.71824C25.229 3.73041 26.65 5.16823 26.65 6.9H26.95C26.95 4.97865 25.3751 3.46648 22.9522 2.44193C20.5197 1.41335 17.1795 0.85 13.525 0.85V1.15ZM26.65 6.9V15.75H26.95V6.9H26.65ZM26.65 15.75V24.6H26.95V15.75H26.65ZM26.65 24.6C26.65 26.3318 25.229 27.7696 22.8353 28.7818C20.4511 29.7899 17.1538 30.35 13.525 30.35V30.65C17.1795 30.65 20.5197 30.0866 22.9522 29.0581C25.3751 28.0335 26.95 26.5213 26.95 24.6H26.65ZM13.525 30.35C9.89618 30.35 6.59887 29.7899 4.21468 28.7818C1.82098 27.7696 0.4 26.3318 0.4 24.6H0.1C0.1 26.5213 1.67486 28.0335 4.09784 29.0581C6.53032 30.0866 9.87051 30.65 13.525 30.65V30.35ZM0.4 24.6V15.75H0.1V24.6H0.4ZM24 24.6V19.6157H23.7V24.6H24ZM13.525 27.7C16.414 27.7 19.0105 27.2693 20.8888 26.6811C21.8271 26.3873 22.5925 26.0523 23.1267 25.7079C23.3936 25.5358 23.6084 25.3578 23.7579 25.1767C23.9069 24.9963 24 24.8017 24 24.6H23.7C23.7 24.707 23.6502 24.836 23.5266 24.9857C23.4034 25.1348 23.2159 25.2934 22.9641 25.4557C22.4609 25.7802 21.7233 26.1055 20.7992 26.3948C18.9526 26.973 16.3866 27.4 13.525 27.4V27.7ZM3.05 24.6C3.05 24.8017 3.14313 24.9963 3.29213 25.1767C3.44165 25.3578 3.6564 25.5358 3.92332 25.7079C4.45751 26.0523 5.22289 26.3873 6.1612 26.6811C8.03949 27.2693 10.636 27.7 13.525 27.7V27.4C10.6634 27.4 8.0974 26.973 6.25084 26.3948C5.32672 26.1055 4.5891 25.7802 4.08588 25.4557C3.8341 25.2934 3.64655 25.1348 3.52345 24.9857C3.39982 24.836 3.35 24.707 3.35 24.6H3.05ZM3.05 19.6157V24.6H3.35V19.6157H3.05ZM13.525 21.5C9.38661 21.5 5.68236 20.7716 3.27067 19.4834L3.12933 19.748C5.60119 21.0684 9.36053 21.8 13.525 21.8V21.5ZM23.7793 19.4834C21.3676 20.7716 17.6634 21.5 13.525 21.5V21.8C17.6895 21.8 21.4488 21.0684 23.9207 19.748L23.7793 19.4834ZM23.7 6.90097C23.6997 7.00804 23.6495 7.13714 23.5256 7.28687C23.4022 7.43595 23.2144 7.59452 22.9624 7.7568C22.4589 8.08114 21.7211 8.40627 20.7971 8.69547C18.9507 9.27335 16.3855 9.7 13.525 9.7V10C16.4129 10 19.0086 9.56958 20.8867 8.98178C21.8249 8.68814 22.5904 8.35328 23.1249 8.00901C23.392 7.83699 23.6069 7.65912 23.7567 7.47817C23.9059 7.29786 23.9994 7.10335 24 6.90179L23.7 6.90097ZM23.7 6.89979L23.7 6.90117L24 6.90159L24 6.90021L23.7 6.89979ZM13.525 4.1C16.3866 4.1 18.9526 4.52696 20.7992 5.10517C21.7233 5.39454 22.4609 5.71983 22.9641 6.04428C23.2159 6.20662 23.4034 6.36522 23.5266 6.51429C23.6502 6.66399 23.7 6.79301 23.7 6.9H24C24 6.69833 23.9069 6.50368 23.7579 6.32326C23.6084 6.14221 23.3936 5.96424 23.1267 5.79215C22.5925 5.44773 21.8271 5.11268 20.8888 4.81888C19.0105 4.23073 16.414 3.8 13.525 3.8V4.1ZM3.35 6.9C3.35 6.79301 3.39982 6.66399 3.52345 6.51429C3.64655 6.36522 3.8341 6.20662 4.08588 6.04428C4.5891 5.71983 5.32672 5.39454 6.25084 5.10517C8.0974 4.52696 10.6634 4.1 13.525 4.1V3.8C10.636 3.8 8.03949 4.23073 6.1612 4.81888C5.22289 5.11268 4.45751 5.44773 3.92332 5.79215C3.6564 5.96424 3.44165 6.14221 3.29213 6.32326C3.14313 6.50368 3.05 6.69833 3.05 6.9H3.35ZM13.525 9.7C10.6634 9.7 8.0974 9.27304 6.25084 8.69483C5.32672 8.40546 4.5891 8.08017 4.08588 7.75572C3.8341 7.59338 3.64655 7.43478 3.52345 7.28571C3.39982 7.13601 3.35 7.00699 3.35 6.9H3.05C3.05 7.10166 3.14313 7.29632 3.29213 7.47674C3.44165 7.65779 3.6564 7.83576 3.92332 8.00785C4.45751 8.35227 5.22289 8.68731 6.1612 8.98112C8.03949 9.56926 10.636 10 13.525 10V9.7Z" fill="black"/>
</svg>
