<svg width="25" height="25" viewBox="0 0 25 25" fill="none" xmlns="http://www.w3.org/2000/svg">
<path fill-rule="evenodd" clip-rule="evenodd" d="M2.475 0H22.275C23.6419 0 24.75 1.1081 24.75 2.475V22.275C24.75 23.6419 23.6419 24.75 22.275 24.75H2.475C1.1081 24.75 0 23.6419 0 22.275V2.475C0 1.1081 1.1081 0 2.475 0ZM2.475 2.475V22.275H22.275V2.475H2.475ZM11.3026 12.3804H13.6129V19.8H16.0879V12.3804H18.5412V9.90544H16.0879V8.6625C16.0879 7.97905 16.642 7.425 17.3254 7.425H18.5629V4.95H17.3254C15.2751 4.95 13.6129 6.61214 13.6129 8.6625V9.90544H11.3026V12.3804Z" fill="white" fill-opacity="0.4"/>
</svg>
