<svg width="27" height="27" viewBox="0 0 27 27" fill="none" xmlns="http://www.w3.org/2000/svg">
<path fill-rule="evenodd" clip-rule="evenodd" d="M18.975 0H8.275C3.84291 0 0.25 3.59291 0.25 8.025V18.725C0.25 23.1571 3.84291 26.75 8.275 26.75H18.975C23.4071 26.75 27 23.1571 27 18.725V8.025C27 3.59291 23.4071 0 18.975 0ZM2.925 8.025C2.925 5.07028 5.32028 2.675 8.275 2.675H18.975C21.9297 2.675 24.325 5.07028 24.325 8.025V18.725C24.325 21.6797 21.9297 24.075 18.975 24.075H8.275C5.32028 24.075 2.925 21.6797 2.925 18.725V8.025ZM13.625 20.0625C9.93159 20.0625 6.9375 17.0684 6.9375 13.375C6.9375 9.6816 9.93159 6.6875 13.625 6.6875C17.3184 6.6875 20.3125 9.6816 20.3125 13.375C20.3125 17.0684 17.3184 20.0625 13.625 20.0625ZM13.625 17.3875C15.841 17.3875 17.6375 15.591 17.6375 13.375C17.6375 11.159 15.841 9.3625 13.625 9.3625C11.409 9.3625 9.6125 11.159 9.6125 13.375C9.6125 15.591 11.409 17.3875 13.625 17.3875ZM21.65 6.6875C21.65 7.42618 21.0512 8.025 20.3125 8.025C19.5738 8.025 18.975 7.42618 18.975 6.6875C18.975 5.94882 19.5738 5.35 20.3125 5.35C21.0512 5.35 21.65 5.94882 21.65 6.6875Z" fill="white" fill-opacity="0.4"/>
</svg>
