<svg width="35" height="26" viewBox="0 0 35 26" fill="none" xmlns="http://www.w3.org/2000/svg">
<path fill-rule="evenodd" clip-rule="evenodd" d="M5.08333 1H29.5833C31.8385 1 33.6667 2.82817 33.6667 5.08333V21.4167C33.6667 23.6718 31.8385 25.5 29.5833 25.5H5.08333C2.82817 25.5 1 23.6718 1 21.4167V5.08333C1 2.82817 2.82817 1 5.08333 1ZM5.08273 11.2083V21.4167H29.5827V10.9928L17.3327 17.3333L5.08273 11.2083ZM5.08273 7.125L17.3328 13.2256L29.5827 7.125V5.08341H5.08273V7.125Z" fill="white" fill-opacity="0.4"/>
<path d="M5.08273 21.4167H4.60773V21.8917H5.08273V21.4167ZM5.08273 11.2083L5.29516 10.7835L4.60773 10.4398V11.2083H5.08273ZM29.5827 21.4167V21.8917H30.0577V21.4167H29.5827ZM29.5827 10.9928H30.0577V10.2121L29.3644 10.5709L29.5827 10.9928ZM17.3327 17.3333L17.1203 17.7582L17.3365 17.8663L17.5511 17.7552L17.3327 17.3333ZM5.08273 7.125H4.60773V7.41909L4.87098 7.55019L5.08273 7.125ZM17.3328 13.2256L17.121 13.6507L17.3328 13.7562L17.5445 13.6507L17.3328 13.2256ZM29.5827 7.125L29.7945 7.55019L30.0577 7.41909V7.125H29.5827ZM29.5827 5.08341H30.0577V4.60841H29.5827V5.08341ZM5.08273 5.08341V4.60841H4.60773V5.08341H5.08273ZM29.5833 0.525H5.08333V1.475H29.5833V0.525ZM34.1417 5.08333C34.1417 2.56584 32.1008 0.525 29.5833 0.525V1.475C31.5762 1.475 33.1917 3.09051 33.1917 5.08333H34.1417ZM34.1417 21.4167V5.08333H33.1917V21.4167H34.1417ZM29.5833 25.975C32.1008 25.975 34.1417 23.9342 34.1417 21.4167H33.1917C33.1917 23.4095 31.5762 25.025 29.5833 25.025V25.975ZM5.08333 25.975H29.5833V25.025H5.08333V25.975ZM0.525 21.4167C0.525 23.9342 2.56584 25.975 5.08333 25.975V25.025C3.09051 25.025 1.475 23.4095 1.475 21.4167H0.525ZM0.525 5.08333V21.4167H1.475V5.08333H0.525ZM5.08333 0.525C2.56583 0.525 0.525 2.56584 0.525 5.08333H1.475C1.475 3.09051 3.09051 1.475 5.08333 1.475V0.525ZM5.55773 21.4167V11.2083H4.60773V21.4167H5.55773ZM29.5827 20.9417H5.08273V21.8917H29.5827V20.9417ZM29.1077 10.9928V21.4167H30.0577V10.9928H29.1077ZM29.3644 10.5709L17.1144 16.9115L17.5511 17.7552L29.8011 11.4146L29.3644 10.5709ZM17.5452 16.9085L5.29516 10.7835L4.8703 11.6332L17.1203 17.7582L17.5452 16.9085ZM4.87098 7.55019L17.121 13.6507L17.5445 12.8004L5.29448 6.69981L4.87098 7.55019ZM17.5445 13.6507L29.7945 7.55019L29.371 6.69981L17.121 12.8004L17.5445 13.6507ZM29.1077 5.08341V7.125H30.0577V5.08341H29.1077ZM5.08273 5.55841H29.5827V4.60841H5.08273V5.55841ZM5.55773 7.125V5.08341H4.60773V7.125H5.55773Z" fill="black"/>
</svg>
