<svg width="133" height="113" viewBox="0 0 133 113" fill="none" xmlns="http://www.w3.org/2000/svg">
<ellipse rx="39.6908" ry="39.725" transform="matrix(-0.488728 0.871146 -0.875562 -0.485426 66.0644 46.6765)" stroke="#191919" stroke-width="6.8"/>
<ellipse rx="39.6908" ry="39.725" transform="matrix(-0.488728 0.871146 -0.875562 -0.485426 66.0644 46.6765)" stroke="#191919" stroke-width="6.8"/>
<ellipse rx="39.6908" ry="39.725" transform="matrix(-0.488728 0.871146 -0.875562 -0.485426 66.0644 46.6765)" stroke="#191919" stroke-width="6.8"/>
<path d="M82.343 82.8074C87.6014 80.4658 92.2861 77.0178 96.0738 72.7014C99.8614 68.385 102.662 63.3029 104.282 57.806C105.901 52.3091 106.302 46.5282 105.456 40.8624C104.61 35.1966 102.537 29.7808 99.3804 24.9888" stroke="#DC01D3" stroke-width="6.8" stroke-linecap="round"/>
<ellipse rx="22.7798" ry="22.7994" transform="matrix(-0.488728 0.871146 -0.875562 -0.485426 66.0647 46.6765)" stroke="#191919" stroke-width="6.8"/>
<ellipse rx="22.7798" ry="22.7994" transform="matrix(-0.488728 0.871146 -0.875562 -0.485426 66.0647 46.6765)" stroke="#191919" stroke-width="6.8"/>
<ellipse rx="22.7798" ry="22.7994" transform="matrix(-0.488728 0.871146 -0.875562 -0.485426 66.0647 46.6765)" stroke="#191919" stroke-width="6.8"/>
<path d="M64.1319 69.3173C67.427 69.5953 70.7435 69.1591 73.8525 68.039C76.9616 66.9188 79.7891 65.1413 82.1399 62.8292C84.4907 60.5171 86.3089 57.7255 87.4689 54.6469C88.6289 51.5684 89.1031 48.2763 88.8588 44.9979" stroke="#1FE46E" stroke-width="6.8" stroke-linecap="round"/>
<ellipse rx="31.2336" ry="31.2605" transform="matrix(-0.488728 0.871146 -0.875562 -0.485426 66.066 46.6764)" stroke="#191919" stroke-width="6.8"/>
<ellipse rx="31.2336" ry="31.2605" transform="matrix(-0.488728 0.871146 -0.875562 -0.485426 66.066 46.6764)" stroke="#191919" stroke-width="6.8"/>
<ellipse rx="31.2336" ry="31.2605" transform="matrix(-0.488728 0.871146 -0.875562 -0.485426 66.066 46.6764)" stroke="#191919" stroke-width="6.8"/>
<path d="M71.3023 77.3926C75.9409 76.6107 80.3429 74.8005 84.1817 72.0965C88.0205 69.3924 91.1976 65.8638 93.4773 61.7725C95.757 57.6812 97.0808 53.1321 97.3505 48.4628C97.6202 43.7934 96.8289 39.1236 95.0353 34.7998" stroke="#54ADFF" stroke-width="6.8" stroke-linecap="round"/>
</svg>
