<svg width="82" height="37" viewBox="0 0 82 37" fill="none" xmlns="http://www.w3.org/2000/svg">
<path d="M4.75057 14.8859C4.75057 21.1755 4.76945 28.7722 1.83733 34.5605C1.11765 35.9813 1.07039 33.5459 1.03236 33.0471C0.894147 31.2347 1.17621 29.9326 2.31648 28.5257C4.14728 26.2669 7.7308 26.7042 10.4429 26.8231C11.5205 26.8704 13.1606 27.4752 14.2186 27.0691C16.5601 26.1703 16.0411 20.9286 15.9244 19.0857C15.5574 13.2896 11.6175 5.75963 6.16885 3.1947C2.57946 1.505 4.16517 11.3364 4.55891 12.5023C6.12552 17.1413 10.2399 23.1459 15.6369 23.6638C18.7345 23.9611 20.2419 21.0481 22 19.3127" stroke="white" stroke-opacity="0.9" stroke-width="2" stroke-linecap="round" stroke-linejoin="round"/>
<path d="M22.6002 18.5133C23.2194 16.9776 25.8048 9.39656 22.3362 9.6545C20.8677 9.7637 20.9405 14.1164 21.0541 14.9546C21.3649 17.2489 22.3881 20.9307 25.1269 21.2202C27.1751 21.4366 27.8572 18.0893 28.1814 16.6393C28.2701 16.2427 28.8312 13.2216 28.898 13.3078C29.6098 14.2266 32.5817 22.1334 34.2152 18.0969C35.2491 15.5418 34.2663 11.6988 37.5338 11.6988C38.7924 11.6988 39.6725 11.4446 40.5884 10.5252C41.0264 10.0855 41.5159 9.53357 41.7951 8.97305C41.8793 8.80401 41.946 8.04188 41.946 8.19696C41.946 9.52045 41.2558 13.5854 42.6248 14.3489C44.1091 15.1767 44.3217 10.2408 44.3217 9.50306C44.3217 8.96863 45.3734 11.198 46.3581 11.3392C48.3934 11.6311 47.4291 9.35838 48.3945 8.44304C49.4496 7.44273 50.1442 9.60165 51.4491 8.2916C51.8298 7.90944 52.328 6.95096 52.8821 6.92871C53.9085 6.8875 54.7067 6.80154 55.6916 6.3987C57.4244 5.69 58.2049 3.81905 58.8782 2.17752C58.9219 2.07088 59.2553 0.613507 59.2553 1.09856C59.2553 2.18074 59.3436 3.24032 59.4627 4.3165C60.178 10.7795 61.1037 17.2524 62.3099 23.6431C62.4232 24.2433 63.3291 29.0006 63.3281 29C61.3191 27.8656 62.2023 20.7573 62.3476 19.0433C62.54 16.7742 63.8128 14.3944 64.6668 12.3046C65.2336 10.9177 65.0448 10.9877 64.3463 12.0396" stroke="white" stroke-opacity="0.9" stroke-width="2" stroke-linecap="round" stroke-linejoin="round"/>
<path d="M33 29C39.6868 25.3025 47.731 23.6268 55.019 21.3913C62.0592 19.2319 69.1515 17.3081 76.2381 15.3043C77.8251 14.8556 79.3661 14.259 81 14" stroke="white" stroke-opacity="0.9" stroke-width="2" stroke-linecap="round" stroke-linejoin="round"/>
</svg>
