<svg width="29" height="27" viewBox="0 0 29 27" fill="none" xmlns="http://www.w3.org/2000/svg">
<path fill-rule="evenodd" clip-rule="evenodd" d="M26.2887 3.44879L28.2339 3.67596L27.3595 5.42836C26.9331 6.28294 26.5063 7.13752 26.079 7.9921C26.0284 8.1731 25.9393 8.33177 25.8076 8.53836C25.7526 8.62469 25.5646 8.89927 25.5558 8.91245C25.5062 8.98689 25.4695 9.04559 25.4431 9.09263V12.3768C25.4431 20.7806 17.3102 26.1208 9.62963 26.1208C8.058 26.1208 6.86392 26.0455 5.49663 25.7471C3.2465 25.2561 1.57196 24.2801 0.805693 22.5742L0.0167893 20.8179L1.93401 20.6416C3.66842 20.4821 5.1722 20.1517 6.32702 19.7092C3.1566 19.1993 1.37992 17.8069 1.37992 15.1918V13.8169H2.75488C3.05698 13.8169 3.32938 13.7924 3.57291 13.7474C1.19347 12.3247 0.00167987 10.0425 0.00167987 6.87692C0.00141987 6.742 0.00141987 6.742 0.000608492 6.59774C-0.00833032 5.00216 0.0773723 4.1496 0.514166 3.06149C0.794102 2.36413 1.19874 1.71855 1.74332 1.12702L2.78088 0L3.78965 1.15286C7.11399 4.95209 10.4002 7.25701 13.7554 7.53581C13.7697 4.03009 16.4192 1.37706 19.943 1.37706C21.5857 1.37706 23.0758 2.00059 24.2468 3.12492C24.8877 3.25662 25.5684 3.36467 26.2887 3.44879ZM23.2488 5.7226L22.8273 5.62716L22.5362 5.30772C21.8323 4.53536 20.9489 4.12696 19.9429 4.12696C17.9314 4.12696 16.5053 5.56021 16.5053 7.56438C16.5053 7.89192 16.4968 8.09773 16.456 8.36822C16.2932 9.44759 15.6877 10.3143 14.4428 10.3143C10.3206 10.3143 6.60168 8.10597 2.97526 4.33425C2.78831 4.90256 2.74434 5.48674 2.75048 6.58231C2.7513 6.72883 2.7513 6.72883 2.75159 6.8769C2.75159 9.69284 3.89242 11.2331 6.59358 12.0917L7.55206 12.3963V13.4021C7.55206 14.6216 6.39662 15.7697 4.70605 16.2839C5.48102 16.8719 7.06593 17.1891 9.6301 17.1891H11.0051V18.5641C11.0051 20.5341 8.74149 22.0765 5.32213 22.882C6.43727 23.2236 7.92206 23.3709 9.62961 23.3709C15.9743 23.3709 22.6931 18.9591 22.6931 12.3768V8.93935C22.6931 8.53541 22.8102 8.18478 23.0047 7.82022C23.0808 7.67768 23.1645 7.54179 23.2679 7.38681C23.2873 7.35763 23.3595 7.25191 23.4168 7.16739L23.5258 6.94945C23.7024 6.5963 23.8789 6.24316 24.0554 5.89001C23.7811 5.83807 23.5123 5.78227 23.2488 5.7226Z" fill="white" fill-opacity="0.4"/>
</svg>
