<svg width="39" height="39" viewBox="0 0 39 39" fill="none" xmlns="http://www.w3.org/2000/svg">
<path fill-rule="evenodd" clip-rule="evenodd" d="M34.3192 7.32594L36.6182 7.59443L35.5848 9.6655C35.0808 10.6755 34.5764 11.6855 34.0714 12.6954C34.0115 12.9094 33.9063 13.0969 33.7507 13.341C33.6857 13.4431 33.4635 13.7676 33.4531 13.7832C33.3944 13.8711 33.351 13.9405 33.3198 13.9961V17.8775C33.3198 27.8095 23.708 34.1208 14.6308 34.1208C12.7733 34.1208 11.3621 34.0318 9.74618 33.6792C7.08687 33.0989 5.10782 31.9453 4.20221 29.9292L3.26984 27.8536L5.53571 27.6452C7.58551 27.4567 9.36274 27.0662 10.7276 26.5433C6.98062 25.9407 4.88085 24.295 4.88085 21.2044V19.5794H6.50585C6.86288 19.5794 7.18482 19.5505 7.47263 19.4973C4.6605 17.8159 3.25199 15.1187 3.25199 11.3775C3.25168 11.218 3.25168 11.218 3.25072 11.0475C3.24015 9.16179 3.34144 8.15419 3.85767 6.86821C4.18851 6.04404 4.66673 5.28106 5.31034 4.58196L6.53658 3.25L7.72878 4.61251C11.6577 9.10261 15.5414 11.8267 19.5068 12.1562C19.5237 8.01295 22.655 4.87747 26.8195 4.87747C28.761 4.87747 30.5221 5.6144 31.906 6.94318C32.6635 7.09883 33.4679 7.22652 34.3192 7.32594ZM30.7266 10.0133L30.2285 9.90045L29.8844 9.52293C29.0526 8.61012 28.0085 8.12746 26.8196 8.12746C24.4423 8.12746 22.7568 9.82133 22.7568 12.19C22.7568 12.5771 22.7468 12.8203 22.6986 13.14C22.5061 14.4156 21.7906 15.44 20.3192 15.44C15.4474 15.44 11.0523 12.83 6.76641 8.37244C6.54546 9.04409 6.4935 9.7345 6.50075 11.0293C6.50173 11.2025 6.50173 11.2025 6.50207 11.3775C6.50207 14.7055 7.85035 16.5259 11.0427 17.5405L12.1755 17.9006V19.0892C12.1755 20.5305 10.8099 21.8873 8.81195 22.4951C9.72784 23.19 11.601 23.565 14.6314 23.565H16.2564V25.19C16.2564 27.5182 13.5812 29.3411 9.54005 30.293C10.858 30.6968 12.6128 30.8708 14.6308 30.8708C22.1293 30.8708 30.0699 25.6568 30.0699 17.8775V13.815C30.0699 13.3376 30.2083 12.9232 30.4382 12.4923C30.5281 12.3239 30.6271 12.1633 30.7492 11.9801C30.7722 11.9456 30.8575 11.8207 30.9252 11.7208L31.054 11.4632C31.2627 11.0458 31.4713 10.6285 31.6799 10.2111C31.3558 10.1497 31.0381 10.0838 30.7266 10.0133Z" fill="white" fill-opacity="0.4"/>
</svg>
