<?xml version="1.0" standalone="no"?>
<!DOCTYPE svg PUBLIC "-//W3C//DTD SVG 20010904//EN"
 "http://www.w3.org/TR/2001/REC-SVG-20010904/DTD/svg10.dtd">
<svg version="1.0" xmlns="http://www.w3.org/2000/svg"
 width="341.000000pt" height="341.000000pt" viewBox="0 0 341.000000 341.000000"
 preserveAspectRatio="xMidYMid meet">
<metadata>
Created by potrace 1.11, written by Peter Selinger 2001-2013
</metadata>
<g transform="translate(0.000000,341.000000) scale(0.100000,-0.100000)"
fill="#000000" stroke="none">
<path d="M372 3241 c-138 -40 -262 -146 -323 -275 -16 -34 -33 -84 -39 -111
-6 -31 -8 -470 -7 -1165 l2 -1115 26 -71 c39 -104 84 -167 172 -241 24 -21 84
-55 89 -52 2 1 28 -7 58 -17 52 -18 117 -19 1327 -22 1403 -3 1343 -5 1463 59
81 43 172 135 210 212 63 128 60 63 57 1292 -2 616 -6 1135 -10 1153 -12 60
-60 142 -116 200 -69 70 -88 85 -149 116 -115 58 -54 56 -1432 55 -1183 0
-1269 -2 -1328 -18z"/>
</g>
</svg>
